<?xml version="1.0" encoding="utf-8"?>
<!-- Generator: Adobe Illustrator 18.0.0, SVG Export Plug-In . SVG Version: 6.00 Build 0)  -->
<!DOCTYPE svg PUBLIC "-//W3C//DTD SVG 1.1 Tiny//EN" "http://www.w3.org/Graphics/SVG/1.1/DTD/svg11-tiny.dtd">
<svg version="1.1" baseProfile="tiny" id="Layer_1" xmlns="http://www.w3.org/2000/svg" xmlns:xlink="http://www.w3.org/1999/xlink"
	 x="0px" y="0px" viewBox="0 0 1200 200" xml:space="preserve">
<path fill-rule="evenodd" fill="#571412" d="M1064.6,148.7l0.4,0.2C1065,148.7,1064.6,148.7,1064.6,148.7z M1200,200
	c0-5.6-10.4-10.3-32-14.2c2.1-2.2-0.2-4.4-6.3-6.1c0.2-1.6-2.2-3.6-2.4-4.6c-2.4,0.7-7.7,0.4-10,1.2c0.5-1.3,0.1-2.5-0.9-3.5
	c0.4-5,1.2-8.8,4-17.5c0-0.1,0.4,0.3,0.4,0.3c0.2,0,0.3-0.6,0.6-1.6c0.7,0.8,0.3,2-0.1,2.7c0.2,0,0.5-0.3,0.9-0.8
	c0,0.1-0.1,0.5-0.4,1.2c0,0,0.6-0.4,0.6-0.5c0,0-0.5,2.1-0.7,2.8c0.7-0.2,2.1-1.4,1.6-4.3c0.1,0.2,0.3,0.5,0.4,0.9
	c0.1-0.2,0.1-0.6,0.1-1.2c0,0,0.3-0.5,0.3-0.5c0,0-0.2,1.9,0.2,1.9c0.1-0.9,0.3-1.4,0.5-1.4c0,0-0.4,2.1-0.3,2.2l0.7-1.2
	c-0.1,0.4,0.6,2.5-0.2,3.3c0.7,0,1.8-2.2,1.6-3.2c-0.3-1-0.7-1.8-1.7-2.8c0.4,0.1,0.9,0.5,1.5,1.2c0,0,0-0.1,0-0.1
	c-0.1-0.6-1.3-2-1.3-2c0.5,0.3,1.1,0.7,1.7,1.3c0-0.3,0-0.5,0.1-0.8c0.1,0,0.3,1.2,0.4,1.4c0.6,0.7,0.8,2.1,0.7,2.6
	c0.6-0.4,1.3-4.3-2.9-5.9c0,0,0,0,0-0.1c0,0,0,0,0-0.1c0.9,0.2,1.7,0.6,2.4,1.5c0,0-0.5-1.4-0.4-1.5c0.2,0.2,0.5,0.6,0.8,1.4
	c0.1-0.1-0.4-1.9-0.4-1.9l0,0c0.1,0,0.3,0.2,0.5,0.7c0.1,0.2,0.4,1.3,0.5,1.4c0.1,0.1,0.5,1,0.6,1.4c0,0,0,0.1,0,0.1
	c0.4-0.4,0.5-1.2,0.2-2.3c-0.2-1-0.7-1.7-1.4-2.3c-0.7-0.5-1.5-0.7-2.3-0.6c0,0,2-1.8,3.3,0.8c0-1.3-0.9-2.2-1.8-2.6
	c0,0,0-0.1,0.1-0.3c-0.1,0-1.4-0.9-1.6-0.8c0,0-0.2,0.2-0.7,0.7c0-0.1,0.1-0.4,0.4-0.8c-0.2,0-1.2,0.4-1.7,1.1c0,0,0,0,0-0.1
	c-0.6-1.3,1.2-1.6,1.4-1.7c0.4-0.1,0.8,0,1.1,0.2c-0.1-0.2-0.3-0.4-0.7-0.6c-0.4-0.2-1-0.2-1-0.2c0-0.1,0-0.1,0.1-0.2
	c0,0-2.3-1-2.3,1.3c-0.3-1-0.8-1.7-1.4-2.2c-1.3-1-3,0-3.6,0.3c0.4,0.1,0.8,0.3,1.3,0.6c0,0,1.3-0.2,1.6,0.1c0,0-1.2,0.5-1.2,0.5
	c0.1,0.1,1.2,0.3,1.4,0.5c-0.1,0.1-0.9,0.2-1,0.3c-0.7-0.8-1.6-1.2-2.8-1.4c-1.1-0.2-1.9-0.4-2.3-0.8c-0.1,0.3,0.7,1.9,1.2,1.8
	c0,0,0.8-0.2,0.8-0.2c-0.1,0.1-0.3,0.2-0.5,0.4c0,0.2,0.8,0.2,0.9,0.2c-0.1,0.1-0.5,0.2-1.2,0.5c0,0,0.1,0.2,0.1,0.3
	c-0.8,0.2-1.4,0.7-1.8,1.6l0,0c0,0,0.5-0.4,0.7-0.4c0.2,0.1-0.5,0.5-0.5,0.5c-0.4,0.4-0.6,0.9-0.7,1.6c0.5-0.8,3-2.5,3.1-2.4
	c-0.1,0.1-0.2,0.3-0.4,0.6c0.2-0.1,1.1-0.8,2.1,0.2c-0.8-0.1-1.3-0.1-1.5,0c-1.8,0.4-2.7,1.7-2.7,4l0.3,0.8
	c-0.2-0.7-0.1-1.2,0.2-1.6c0,0,0.1,0.8,0.1,0.8c0.1-0.4,0.4-0.9,0.7-1.7c0,0,0.1,0.5,0.1,0.5c0.5-0.4,1-0.7,1.6-0.8
	c0.2,0,0.4,0,0.6,0.1c-0.7,0.5-2.1,0.9-2.2,2.7c0.2-0.2,0.6-1.1,1.2-1.2c-0.2,0.3-0.9,1.3-0.8,1.6c0.8-0.9,1.7-0.8,1.7-0.8l-0.2,0.5
	c0,0,2.2-1.3,2.2-1.3c-0.3,0.2-0.9,1.2-0.9,1.5c0,0,0.3,0.1,0.3,0.2c-0.3,0.4-0.5,0.9-0.6,1.7c0,0.1,0.3,0.2,0.4,0.2
	c0.2,0.4,0.3,0.6,0.4,0.7c-0.2,0.5-3.5,9.2-4.5,15.8c-2.6-1.4-6.4-2.2-9.9-1.8c-1-9.5-4.8-22-5.1-22.8c0.1-0.1,0.3-0.4,0.6-1
	c0.1,0,0.5-0.1,0.6-0.2c0-1.1-0.3-2-0.7-2.5c0.1-0.1,0.5-0.2,0.5-0.2c0.1-0.3-0.8-1.9-1.2-2.2c0,0,3,2,3,2.1l-0.3-0.7
	c0,0,1.4-0.1,2.4,1.3c0.2-0.5-0.6-1.9-0.9-2.4c0.8,0.3,1.4,1.6,1.6,1.9c0.1-2.7-1.9-3.4-2.9-4.1c0.4-0.1,0.7-0.1,0.9-0.1
	c0.9,0.2,1.6,0.7,2.3,1.4c0,0,0.1-0.7,0.2-0.7c0.4,1.2,0.7,2.1,0.8,2.6c0,0,0.1-1.1,0.2-1.2c0.4,0.6,0.4,1.4,0.1,2.4l0.5-1.1
	c0.2-3.3-0.9-5.3-3.5-6c-0.2-0.1-1-0.1-2.2-0.1c1.5-1.4,2.9-0.2,3.1-0.1c-0.3-0.4-0.5-0.7-0.6-0.9c0.2-0.1,3.6,2.5,4.2,3.7
	c-0.1-1-0.3-1.8-0.8-2.4c0,0-1-0.6-0.7-0.7c0.3-0.1,0.9,0.6,1,0.6l0,0c-0.4-1.3-1.3-2.2-2.5-2.5c0.1-0.1,0.2-0.4,0.2-0.4
	c-0.9-0.4-1.5-0.7-1.7-0.8c0.1,0,1.2,0.1,1.2-0.2c-0.3-0.2-0.5-0.5-0.6-0.6c0.1,0,1.2,0.4,1.2,0.4c0.8,0.3,2-2,1.9-2.5
	c-0.6,0.5-1.7,0.8-3.4,1c-1.7,0.2-3,0.7-4.1,1.8c-0.1-0.2-1.2-0.4-1.3-0.5c0.3-0.2,1.8-0.4,2.1-0.6c0,0-1.6-0.8-1.7-0.8
	c0.5-0.3,2.2,0,2.3,0c0.7-0.4,1.3-0.7,1.9-0.8c-0.8-0.6-3.2-2.2-5.1-0.8c-1,0.6-1.8,1.6-2.3,3c0.3-3.3-3.1-2.1-3.2-2.1
	c0.1,0.1,0.1,0.2,0.1,0.3c0,0-0.8,0-1.4,0.3c-0.6,0.2-0.9,0.5-1,0.8c0.5-0.2,1-0.3,1.6-0.1c0.3,0.1,2.9,0.6,1.9,2.5
	c0,0.1,0,0.1-0.1,0.1c-0.7-1-2.2-1.7-2.4-1.7c0.3,0.6,0.4,1,0.5,1.2c-0.7-0.7-1-1-1-1c-0.2-0.1-2.1,1-2.4,1.1
	c0.1,0.3,0.2,0.4,0.2,0.4c-1.4,0.6-2.7,1.7-2.9,3.6c2.1-3.6,4.9-0.8,4.8-0.8c-1.1-0.3-2.3-0.1-3.4,0.6c-1.1,0.7-1.8,1.7-2.2,3.1
	c-0.5,1.6-0.4,2.7,0.1,3.3c0-0.1,0-0.1,0-0.2c0.1-0.5,0.9-1.8,1-1.9c0.1-0.1,0.7-1.8,0.8-2c0.4-0.7,0.7-1,0.8-1l0,0
	c0,0-0.8,2.4-0.7,2.7c0.6-1.1,1-1.7,1.3-1.9c0,0.1-0.8,2.1-0.8,2.1c1.1-1.1,2.3-1.7,3.6-1.9c0,0,0,0.1,0,0.1c0,0,0,0.1-0.1,0.1
	c-6.2,1.9-5.5,7.6-4.7,8.3c0-0.7,0.3-2.7,1.3-3.7c0.2-0.2,0.6-1.9,0.7-1.9c0.1,0.3,0.1,0.7,0,1.1c0.9-0.7,1.8-1.3,2.5-1.7
	c0,0-1.9,1.9-2.1,2.7c0,0,0,0.1,0,0.1c1-1,1.7-1.6,2.2-1.7c-1.6,1.3-2.3,2.5-2.8,3.9c-0.5,1.4,0.9,4.6,2,4.7c-1.1-1.3,0.1-4.3,0-4.8
	l0.9,1.8c0.2-0.2-0.2-3.2-0.2-3.2c0.4,0.1,0.6,0.8,0.6,2.1c0.6,0,0.5-2.8,0.5-2.8c0,0,0.3,0.6,0.4,0.7c-0.1,0.9-0.1,1.4,0,1.7
	c0.2-0.6,0.4-1,0.7-1.2c-1,4,0.9,6,1.9,6.3c-0.2-1-0.7-4.1-0.7-4.1c0.1,0.1,0.9,0.7,0.9,0.7c-0.4-1-0.5-1.6-0.5-1.8
	c0.6,0.7,1,1.1,1.3,1.2c-0.6-1.1-1-2.8,0.1-3.9c0.3,1.5,0.5,2.3,0.7,2.3c0,0,0.6-0.5,0.7-0.4c2.4,9.3,3.4,14.8,3.9,19.9
	c-4.5-2-9.2-3.3-13.5-3.3l-5.4-7.4c0,0-0.9-0.9-3.8-2.6c-2.9-1.7-7.5-9.5-10.5-5.2c-3,4.2,1.9,0.9-3,4.2c-4.9,3.4-3.9,2.5-9.8,5
	c-2.7,1.2-4,2.1-4.9,2.7c-0.1-6.1-1.2-12.8-1.3-13.3c0.1,0,0.2-0.2,0.5-0.6c0,0,0.4-0.1,0.4-0.1c0.1-0.8,0-1.4-0.2-1.8
	c0.1,0,0.4-0.1,0.4-0.1c0.1-0.2-0.4-1.4-0.6-1.6c0,0,1.9,1.7,1.9,1.7l-0.1-0.5c0,0,0.9,0,1.5,1.1c0.2-0.3-0.2-1.4-0.4-1.7
	c0.5,0.3,0.8,1.2,0.9,1.4c0.3-1.9-1-2.5-1.6-3.1c0.3,0,0.5,0,0.6,0c0.6,0.2,1.1,0.6,1.4,1.1c0,0,0.2-0.4,0.2-0.5
	c0.1,0.9,0.3,1.5,0.3,1.8c0,0,0.2-0.7,0.2-0.8c0.2,0.5,0.2,1-0.1,1.7l0.4-0.7c0.5-2.2-0.1-3.7-1.9-4.4c-0.2-0.1-0.7-0.1-1.5-0.2
	c1.2-0.8,2,0.1,2.1,0.2c-0.2-0.3-0.3-0.5-0.3-0.7c0.1,0,2.2,2,2.6,2.9c0.1-0.7-0.1-1.3-0.4-1.7c0,0-0.6-0.5-0.4-0.6
	c0.2,0,0.6,0.5,0.6,0.5l0,0c-0.2-0.9-0.7-1.6-1.5-1.9c0.1-0.1,0.2-0.3,0.2-0.3c-0.6-0.3-1-0.6-1.1-0.7c0.1,0,0.8,0.2,0.9,0
	c-0.2-0.2-0.3-0.3-0.4-0.5c0.1,0,0.8,0.3,0.8,0.4c0.5,0.3,1.6-1.2,1.5-1.5c-0.5,0.3-1.3,0.4-2.4,0.4c-1.2,0-2.1,0.3-3,0.9
	c0-0.1-0.8-0.4-0.9-0.5c0.2-0.1,1.3-0.1,1.5-0.2c0,0-1-0.7-1.1-0.7c0.4-0.2,1.5,0.2,1.6,0.2c0.5-0.2,1-0.3,1.4-0.4
	c-0.5-0.5-2-1.8-3.4-1c-0.8,0.3-1.4,1-1.9,1.9c0.5-2.2-1.9-1.7-2-1.7c0,0.1,0,0.1,0,0.2c0,0-0.6,0-1,0.1c-0.4,0.1-0.7,0.3-0.8,0.5
	c0.3-0.1,0.7-0.1,1.1,0c0.2,0.1,2,0.7,1.1,1.9c0,0,0,0.1-0.1,0.1c-0.4-0.7-1.3-1.3-1.5-1.4c0.1,0.4,0.2,0.7,0.2,0.8
	c-0.4-0.5-0.6-0.8-0.6-0.8c-0.1-0.1-1.6,0.5-1.7,0.5c0.1,0.2,0.1,0.3,0.1,0.3c-1,0.3-2,1-2.3,2.2c1.8-2.3,3.4-0.1,3.4-0.2
	c-0.8-0.3-1.5-0.3-2.4,0.1c-0.8,0.4-1.4,1-1.8,2c-0.5,1-0.5,1.8-0.2,2.3c0,0,0-0.1,0-0.1c0.1-0.3,0.8-1.1,0.9-1.2
	c0.1-0.1,0.6-1.2,0.7-1.3c0.3-0.4,0.6-0.6,0.7-0.6l0,0c0,0-0.8,1.6-0.7,1.8c0.5-0.7,0.9-1.1,1.1-1.2c0,0.1-0.7,1.3-0.7,1.4
	c0.9-0.7,1.8-1,2.7-1c0,0,0,0,0,0.1c0,0,0,0-0.1,0.1c-4.4,0.8-4.5,4.7-4,5.3c0.1-0.5,0.5-1.9,1.2-2.5c0.2-0.1,0.6-1.3,0.7-1.3
	c0,0.2,0,0.5-0.1,0.8c0.7-0.4,1.3-0.7,1.9-0.9c0,0-1.5,1.1-1.7,1.7c0,0,0,0,0,0.1c0.8-0.6,1.3-0.9,1.7-0.9c-1.2,0.8-1.8,1.5-2.3,2.4
	c-0.4,0.9,0.2,3.2,0.9,3.4c-0.7-1,0.5-2.9,0.4-3.3l0.5,1.3c0.2-0.1,0.1-2.2,0.2-2.2c0.2,0.1,0.3,0.6,0.2,1.5c0.4,0,0.6-1.9,0.6-1.9
	c0,0,0.2,0.5,0.2,0.5c-0.2,0.6-0.2,1-0.2,1.2c0.2-0.4,0.4-0.6,0.6-0.8c-1.1,2.7,0.1,4.2,0.7,4.5c0-0.7-0.1-2.9-0.1-2.9
	c0,0,0.5,0.6,0.5,0.6c-0.2-0.7-0.2-1.1-0.2-1.3c0.3,0.6,0.6,0.9,0.8,0.9c-0.3-0.8-0.4-2,0.4-2.7c0,1,0.1,1.6,0.3,1.7
	c0,0,0.5-0.3,0.5-0.2c0.8,6.9,1,10.8,0.8,14.4c-0.5,0-1.2-0.3-2.2-0.7c-3.8-1.7-7.7-4.3-7.7-4.3l-2.8-2.6l-3.5-1.6
	c0,0.2-0.7,0.6-3.3,1.5c-4.9,1.6-23.3-1.1-23.3,1.4c-0.1,2.6-0.1,3.4-0.2,6.8c0,0.8-0.3,1.5-0.7,2.1c-3.2-3.3-3.5-8.9-3.8-13.5
	c-0.1-1,0.4-2.5-0.1-3.6c-0.6-1.5-2.4-2.6-3.7-3.7c0.2-0.6,0.7-1.4,0-1.7c0.5-0.6,0.6,0.4,1.2,0.7c1.1-1,0-2.7-1.3-3.4
	c0.9-0.7,1.5-1.7,2.6-2.2c1.9,1.5,6.4,0.5,8.5,0c0.4,0.9,1.7,0.1,2.2,1.1c0.3-1.6,2-0.1,1.6-1.4c0-0.4,0.3-0.1,0.4,0.2
	c0.3-3.7-5.9-0.5-9.3-2c-0.1-0.9,1.7-1.4,2.4-2.2c1-1.7,1-3.3,1.7-5c1.4-3.3,4.1-5.1,6.1-8.4c1.3-2.1,2-5.6,2.9-8.1
	c0-0.6,0-1.3,0-1.9c-0.6-2.9-2.5-6.5-5.8-6.3c-0.3-0.6-1.3-0.6-1.8-1.1c-4.5,1.6-9.2,1.1-12.9,4c-0.9,1.5-1,3.4,0.3,5
	c1-0.8,4.3-0.9,5.6-0.5c-0.7,1.2-3.8,1.2-5,1.9c-1.2,3.9,3.2,2.5,6.5,2.9c0.1,1.6-1,3.3-2.9,4.7c-13.4-2.1-23.8,3.5-30.3,12.7
	c-4.6,4.3-9.8,13.1-15.6,9.6c-9.4-5.6-14.9-7.9-26.9-8.4c5.9,2.1,11.3,4.4,18.2,8.5c1.9,1.1,3.9,2.2,5.3,3.5c3,2.7,5.4,5.5,9.4,6.4
	c1,0.2,2.2-0.1,3.4,0.1c1.3,0.2,3.3,0.9,5.5,0.8c-2.4,2.5-3.2,5.7-4.9,8.3c-0.8,1.3-1.9,1.6-2,3.1c-0.1,0.6,0,1.2,0.1,2
	c-3.3-0.9-7.2-0.9-7.2-0.9s1.1-4.2-3.8-4.3c-4.1,0-9.5-3.1-12.3-1.6c-8.4-9.1-15.7-18.5-20.7-25.1c-8.7-11.4-18.9-20.9-26.5-32.8
	c-1.5-2.4-4.4-9.9-6.9-11.1c-6.9-3.2-13.1,5.7-17.2-3.7c-6,10.3-15.3,4.8-21.9-1.5c-5.4,21.4-15.4,39.7-28.2,58.5
	c-2,3-4.1,5.8-6.2,8.5c-3.4-3.9-6.9-7.7-9.7-12c-0.8-1.2-2.3-5.1-3.6-5.8c-3.6-1.7-6.8,3-8.9-1.9c-3.1,5.3-8,2.5-11.4-0.8
	c-2.8,11.1-8,20.6-14.6,30.3c-6.5,9.5-13.9,15.7-22.9,20.8c-0.9,0-1.8,0-2.6-0.1c1.2-7.7,6.2-28.1,6.7-30.2h0.1
	c0.1,0.2,0.1,0.8,0.1,0.9c1.4-0.8,1.3-2.6,1.4-3.1c0.3,0.2,0.4,0.3,0.5,0.4c0.3-1.4,0.5-2.4,0.6-3c0.5,0.8,0.9,1.4,0.9,1.9
	c0.3-0.6,0.5-1.1,0.5-1.4c0,0.3,0,2.4-0.1,3.2c0.3-0.2,0.6-0.5,0.6-0.5c1.4,1.9-0.6,3.2-2,4.7h0.1c5.2-0.4,5.1-8.2,5.1-8.4
	c0.8,1.3,1.4,2.3,1.7,3.1c0.4-0.1,0.6-0.3,0.6-0.4c0.3,0.4,0.4,3.8,0.3,4.3c0.9-1.1,1.4-2.7,1.4-4.8c0.2,0.4,0.5,2,0.5,2.8
	c0.3-0.7,0.8-3,0.1-3.7c-0.2-0.5-0.3-0.7-0.3-0.8c0-0.1,1.4-4.2-1.3-6c0.6-0.4,1.9,0,2,0c-0.3-0.7-0.8-1.3-1.5-2
	c0.7-1,2.3-0.2,2.5-0.2c0.8,0,1.5-0.5,2-1.5c-0.3,0.2-0.7,0.4-1.1,0.4c-0.5,0-2.8-2.3-5.3-1.8c-1,0-3.5,0.7-3.5,0.6
	c-0.2-1.4,2.3-2.2,2.9-2.2c1,0,1.9,0.4,2.7,1.3c0.1-0.4,0.1-0.7,0.1-1c-0.2-1-0.4-3.8-4.3-3.7c-0.5,0-2.5,2.8-2.6,2.8
	c0-0.1,0.2-1.6,0.3-2c-0.9,0.3-1.5,2.5-1.7,3.1c-0.1-0.2,0.1-2,0.1-2c-0.7,0.7-2.2,0.7-2.7,1.5c-2-4.4-4.4-6.5-6.9-6.5
	c-0.2,0-0.7,0.1-1.5,0.3c0.7,0,1.4,0.5,2,1.4c0.7,0.9,1.1,1.6,1.2,2.3c-0.4,0.1-1.4-0.2-1.8,0.5c1.8,0.4,1.8,3,1.7,3.1
	c-0.2,0-0.5-0.2-1-0.7c0,0.1-0.2,1.1-0.3,1.3c-0.3-0.2-1.7-3.6-3.7-3.5c0,0.1,0,1.3-0.2,1.4c-0.8-1-1.4-1.4-1.7-1.4
	c-1.2-0.4-5,3.7-5.1,4.3c0.9,0.7,3.9-1.8,5.5-0.8c0,0-5.6,2.5-4.9,7.4c0.9-1.2,1.6-2.1,2.1-2.7c0.1,0.3,0.2,0.6,0.2,0.9
	c0.8-0.9,2.8-1.1,3.4-1.1c0.3,0,0.7,0.1,1,0.5c-4.6,1.1-4.4,4.7-4.4,4.8c0.3-0.4,0.5-0.6,0.6-0.7c0,0.5-1.4,4.4-0.5,4.7
	c0.9-1.4,1.6-2.4,2.3-3c0.3-0.8,0.5-1.4,0.6-1.8c0.1,0.7,0.1,1.2,0.1,1.7c0.5-1.3,0.8-2.1,0.9-2.3c0,0.1,0.2,1.8,0.3,2
	c0.1-0.2,0.8-1.8,1-2c0,0.1,0.1,1.4,0.3,1.5c0.7-0.8,1.3-1.4,1.8-2l0.1,0.8c-1.3,1.4-1.9,2.5-1.9,3.2c0,0.3,0.1,0.6,0.2,1
	c-0.3,0.5-0.6,0.9-0.9,1.4c-1.1,1-0.3,3.3-0.3,3.5c0,0.9-0.8,1.8-1.6,2.5c0,0,3.4-0.5,3.3-2.3c0-0.1-0.2-1.9-0.1-2.1
	c0.3,1,0.6,1.4,1,1.4c0-0.2,0-1.8,0.1-2c0.3,0.4,0.6,0.7,0.8,1c0,0,0.8-3.5,2.3-4.4c-0.5,1.4-0.5,2.3,0.3,3.1
	c0.4-0.3,0.7-0.4,0.9-0.4c0,0-7.6,24.3-8.5,31.5c-3.4-0.1-6.8-0.2-10.2-0.2c0.5-13.7-8.5-40.6-9.1-42c0.1-0.1,0.4-0.6,0.9-1.5
	c0.1,0,0.8-0.2,0.8-0.4c-0.1-1.7-0.5-2.9-1.2-3.7c0.1-0.1,0.7-0.3,0.8-0.3c0.1-0.5-1.3-2.8-1.8-3.2c0,0,4.5,2.9,4.6,3l-0.5-1
	c0.1,0,2-0.3,3.7,1.8c0.3-0.7-1-2.8-1.5-3.5c1.2,0.4,2.2,2.3,2.5,2.8c0.1-4.1-3-4.9-4.5-6.1c0.6-0.2,1.1-0.2,1.4-0.2
	c1.3,0.3,2.5,0.9,3.5,1.9c0,0,0.2-1,0.2-1.1c0.6,1.8,1.1,3,1.4,3.8c0,0,0.2-1.6,0.2-1.7c0.6,0.9,0.7,2.1,0.3,3.6l0.7-1.7
	c0.2-4.9-1.7-7.8-5.6-8.7c-0.4-0.1-1.5-0.1-3.3,0c2.2-2.1,4.2-0.5,4.6-0.2c-0.4-0.6-0.7-1-0.9-1.3c0.2-0.1,5.4,3.6,6.5,5.4
	c-0.1-1.5-0.6-2.7-1.4-3.6c0,0-1.5-0.9-1.1-1.1c0.4-0.1,1.4,0.8,1.5,0.8l0.1,0c-0.7-2-2-3.2-3.8-3.6c0.1-0.2,0.3-0.6,0.3-0.7
	c-1.4-0.5-2.3-0.9-2.6-1.1c0.2,0,1.7,0.1,1.9-0.3c-0.4-0.4-0.7-0.7-1-0.9c0.2,0,1.7,0.5,1.8,0.5c1.1,0.4,2.9-3.1,2.7-3.8
	c-0.9,0.8-2.6,1.3-5,1.6c-2.5,0.3-4.5,1.2-6,2.8c-0.1-0.3-1.9-0.6-2-0.7c0.4-0.4,2.7-0.7,3.1-0.9c0,0-2.4-1.1-2.5-1.1
	c0.7-0.5,3.3-0.1,3.4-0.1c1.1-0.6,2-1,2.8-1.2c-1.2-0.9-4.8-3.1-7.7-0.9c-1.5,1-2.6,2.5-3.3,4.6c0.2-4.9-4.8-2.9-4.9-3
	c0.1,0.1,0.1,0.3,0.1,0.4c0,0-1.2,0.1-2.1,0.5c-0.9,0.4-1.4,0.8-1.5,1.3c0.7-0.4,1.5-0.5,2.4-0.3c0.5,0.1,4.4,0.8,3,3.7
	c0,0.1-0.1,0.1-0.1,0.1c-1.1-1.4-3.3-2.4-3.7-2.5c0.5,0.9,0.7,1.4,0.7,1.7c-1.1-1-1.6-1.5-1.5-1.5c-0.3-0.1-3.2,1.6-3.5,1.7
	c0.2,0.4,0.3,0.6,0.3,0.6c-2.1,0.9-4,2.7-4.1,5.5c2.9-5.4,7.2-1.4,7.1-1.5c-1.7-0.4-3.4,0-5,1.1c-1.6,1.1-2.7,2.7-3.2,4.8
	c-0.6,2.3-0.5,4,0.3,4.9c0-0.1,0-0.2,0.1-0.2c0.2-0.7,1.3-2.7,1.4-2.9c0.2-0.2,0.9-2.7,1.1-3c0.6-1.1,1-1.6,1.2-1.5l0.1,0
	c0,0-1.1,3.7-0.9,4c0.8-1.6,1.5-2.6,1.9-3c0,0.1-1,3.1-1.1,3.1c1.6-1.7,3.4-2.7,5.3-3c0,0.1,0,0.1,0,0.2c0,0.1-0.1,0.1-0.1,0.1
	c-9.2,3.2-7.9,11.6-6.6,12.5c-0.1-1.1,0.3-4.1,1.7-5.6c0.3-0.3,0.9-2.9,1-2.9c0.1,0.5,0.1,1.1,0.1,1.6c1.4-1.1,2.6-2,3.7-2.6
	c0,0-2.7,2.9-3,4.2c0,0.1,0,0.1,0,0.2c1.4-1.6,2.5-2.4,3.3-2.6c-2.3,2-3.3,3.9-3.9,5.9c-0.6,2,1.6,6.9,3.2,7c-1.8-1.9,0-6.4-0.3-7.2
	l1.5,2.6c0.3-0.3-0.5-4.8-0.4-4.8c0.6,0.1,0.9,1.2,1,3.2c0.9,0,0.6-4.1,0.6-4.2c0,0,0.5,0.9,0.6,1c-0.1,1.3-0.1,2.1,0.1,2.6
	c0.3-0.8,0.6-1.5,0.9-1.8c-1.3,6,1.7,8.9,3.1,9.3c-0.3-1.5-1.3-6.1-1.2-6.1c0.1,0.1,1.4,1,1.4,1c-0.6-1.5-0.9-2.4-0.8-2.6
	c0.9,1.1,1.6,1.7,2,1.8c-1-1.6-1.7-4.1-0.1-5.9c0.5,2.2,0.9,3.4,1.2,3.4c0,0,0.9-0.7,1-0.6c6.3,21.9,7.3,29.6,7.6,43.1
	c-7.7-0.2-15.4-0.4-23.1-0.6c-1.9-2.4-5.6-4.3-5.2-8.2c2,0.1,3.2-0.5,5.2-0.3c0,0.3-0.3,0.3-0.3,0.7c4.3-0.3,7.6,0.4,11.5-0.8
	c1-5.1-4.7-7.6-8.6-9.6c-0.7,0.3,0.2,1.5-0.3,1.5c-1.7-0.4-0.8-3.4-1.4-4.9c-1.4,0.1-1.2,1.7-2.5,1.8c-1.4-1.1-1.1-3.8-1.9-5.4
	c-1.4-0.2-1.4,0.9-2.3,1.3c-2.9-1.1-2.3-5.7-4.9-7.1c-0.9,0.7-0.5,2.6-1.5,3c-1.3-0.2-1.6-1.3-3-1.5c-0.5,0.1-0.2,1-1,0.8
	c-5.6-0.9-10.7,0.8-14,3.1c-0.3-0.2-0.7-0.3-1.2-0.2c-0.4,0.5-0.6,1.2-1.3,1.5c-0.3-0.4-0.8-0.5-1.5-0.5c-0.3,0.6,0.7,1,0,1.2
	c-0.6-0.1-0.9-0.4-1.7-0.2c-0.7,0.6,0.7,0.7,0,1.2c-3.4,1.5-7.9,2.9-9.2-0.4c-1-2.6,2.8-8.9,5.1-9.7c2.4-0.8,4,0.1,5.3-1
	c0.6-0.6,1.1-1.4,1.1-3.5c-2.7-1.4-7.9-1-7.5,3c-6.6,3.6-10.8,12.5-4.8,17.9c2.9,2.6,8.1,4,14.2,2.9c0.7,1.4,1.7,2.5,2.7,3.7
	c-0.7,1.3-4.5,3.4-4.8,4.7c-9.4-0.1-22.4-0.1-35.6-0.1c0,0,0,0,0-0.1c0-0.9-20.4-1.4-47.7-1.7c-0.9-1.8-1.9-3.6-2.9-5.3
	c1.2-2.7,0-4.8,1.9-7.4c1.1-1.5,2.4-8.4,2.9-10.3c2.7-4.4,9-12,5.1-24.6c-0.2-1.6,0.2-2.5,1-3.8c1.2-0.6,1.6,1.6,3.3,0.7
	c0.7-0.5-0.4-0.9-0.7-1.4c0.7-0.5,1.6,0.7,2.3-0.2c-0.2-1.9-2.5-1.9-2-3.8c-7.7,0.8-9.2,5.7-8.3,12.4c0.6,4.3-4.3,15.1-7.4,15.9
	c-2.5,0.7-10.2-0.3-11.9,0c-5.6,1.1-9.1,7.3-13.5,7.7c-2,0.1-3.8,0.1-5.5,0.1c0.6-1.2,1.4-2.5,2.2-3.6c2-2.8,5.5-4.7,5.9-7.8
	c0.4-3.2-2.7-6.5-1.8-9.8c0.6-2,3.3-3.2,4.7-4.9c4.4-5.4,7.5-15.1,6.4-24.6c-1.3-12.2-12.1-23.6-13.5-34.9c-0.4-2.9,0.3-4.5,1.8-7
	c2.2-1.1,2.8,2.8,5.9,1.2c1.2-0.9-0.7-1.6-1.2-2.5c1.3-1,2.9,1.2,4.1-0.4c-0.3-3.5-4.4-3.5-3.5-7c-13.7,1.4-16.3,10.4-14.6,22.6
	c1.1,7.7,7,17.8,5.9,27.5c-0.8,7-4.6,17.4-10,18.9c-4.4,1.2-7.3-0.5-11.7-0.8c-3.5,1.3-6.4,0.2-9.4,0.8c-9.9,2-16.2,13.2-24,13.9
	c-10.9,1.1-28.3-0.6-35.7-4.1c1.1-8.1,17.7-8.9,29.3-7c-0.1-3.2-10.5-4.2-18.2-3.3c-9,1-19.5,6.7-15.2,14.4
	c5.2,9.3,29.7,7.1,35.1,17.2c-0.8,6.7-2.8,12.5-4.5,18.5c-0.3,0-0.6,0-0.9,0c0-0.1,0-0.3-0.1-0.5c-2.3-0.1-21-0.2-44.3-0.2
	c-7.1-4.1-17.2-12.2-6.3-14c14-2.4,2.8-3.1,2.8-6.6c0-3.5,0-3.8,0-3.8h-25.2c0,0-4,0-9.4,0c0.3-0.2,0.7-0.4,0.9-0.7
	c0-1.7-0.9-2.5-1.3-3.7c0.6-2,0.2-4.8,0.2-7.1c6.2,0.3,10.2,4,18,3.5c1.6-0.1,2.4-0.1,3.7,0.6c-0.6-1.7-1.6-2.6-2.7-3.4
	c-2.1-1.5-3.9-2.1-5.5-3.4c-3.1-2.6-4.9-6.7-7.3-10.5c-1.1-1.7-2.1-3.8-3.4-5.5c-0.7-0.9-1.7-1.5-2.4-2.4c-0.4-0.5-0.4-1.1-0.8-1.6
	c-1.1-1.4-3.2-2.6-5.2-3.4c-3.9-1.5-9.6-3-14.2-1c0-0.6,1.1-2.2,0.6-3.2c-0.9,0.2-0.9,1.1-1.5,1.6c-2.5,2.3-6.9,2.1-10,3.7
	c1-5.1,7.4-6.3,12.1-8.2c-1.3-1.2-5.2-0.9-7.3-0.5c-4.2,0.8-6.2,5.5-9.8,6.6c0.3-3,1.9-9.5-1.5-11c-0.3,0.7,0.4,2.1,0.5,3.2
	c0.1,3.5-2.3,6.1-3.7,8.4c-1.3-1.3-3.3-1.7-5.2-2.4c-0.5,1.9,2.8,2.3,2.6,4c-0.9,0.6-3.7-0.4-4,1.1c0.7,0.6,2.4,0.3,2.6,1.5
	c0,0.1-0.2,0.2-0.2,0.3c-0.1,0.8-1.4,0.4-1.8,0.8c-0.1,0.7,0.3,1,0.5,1.5c-0.6,0.7-1.3,1.4-0.6,2.6c-2.6-0.5-3.3,0.9-3.9,2.4
	c-2.9-2.3-3.2-7.2-5.8-9.8c-0.1,4.2,0.9,8.5,2.1,11.9c-0.4,1.2-1.7,1.8-2.3,3.1c-1.3,3.1,0.4,6.2,2.3,8.1c0.7,0,0.6-0.8,0.8-1.3
	c4,0.9,7.8-1,11.6-1c1.1,0,2,0.2,3.1-0.3c0.4,0.1,0.7,0.5,1.1,0.6c-1.3,2.1-1,4.3-1.9,6.3c-1.2,2.6-4.4,3.8-5.6,6.3
	c-1.3,0.2-2.7,1.2-2.7,2.1c0,0,0.1,0.1,0.1,0.1h-17.1c-0.2-0.2-0.6-0.3-0.9-0.4c-0.6-1.2-2.1-1.7-2.7-3c-0.4-0.9-0.3-2-0.9-3
	c0.2-0.1,0.3-0.2,0.5-0.3c0.5,0.3,0.9,0.2,1.4,0.2c1.8,0,3.6,0.9,5.5,0.5c0.1,0.2,0.1,0.6,0.4,0.6c0.9-0.9,1.7-2.3,1.1-3.8
	c-0.2-0.6-0.9-0.9-1.1-1.4c0.6-1.6,1-3.7,1-5.6c-1.2,1.2-1.4,3.5-2.7,4.6c-0.3-0.7-0.6-1.4-1.8-1.1c0.3-0.5,0-0.9-0.3-1.2
	c0.1-0.2,0.3-0.3,0.2-0.7c-0.2-0.2-0.8,0-0.8-0.4c0-0.1-0.1-0.1-0.1-0.2c0.1-0.6,0.9-0.4,1.2-0.7c-0.2-0.7-1.5-0.2-1.9-0.5
	c-0.1-0.8,1.4-1,1.2-1.9c-0.9,0.3-1.8,0.5-2.4,1.1c-0.6-1.1-1.8-2.3-1.7-3.9c0-0.5,0.4-1.2,0.2-1.5c-1.6,0.7-0.8,3.7-0.7,5.2
	c-1.7-0.5-2.7-2.7-4.6-3.1c-1-0.2-2.8-0.3-3.4,0.2c2.2,0.9,5.2,1.5,5.7,3.9c-1.5-0.7-3.5-0.7-4.7-1.7c-0.3-0.2-0.2-0.7-0.7-0.8
	c-0.2,0.5,0.3,1.2,0.3,1.5c-2.1-1-4.9-0.2-6.7,0.5c-0.9,0.4-1.9,1-2.4,1.6c-0.2,0.2-0.2,0.5-0.4,0.8c-0.3,0.4-0.8,0.7-1.1,1.1
	c-0.6,0.8-1.1,1.8-1.6,2.6c-1.1,1.8-2,3.7-3.4,4.9c-0.7,0.6-1.6,0.9-2.6,1.6c-0.5,0.4-1,0.8-1.3,1.6c0.6-0.3,1-0.3,1.7-0.3
	c3.7,0.2,5.6-1.5,8.5-1.7c0,1.1-0.2,2.4,0.1,3.3c-0.2,0.5-0.5,0.9-0.6,1.5c-6.5,0-11.4,0-11.4,0l-5.8,0.6c-1.5-1.7-3-3.1-4.2-1.1
	c-0.6,0.9-0.7,1.4-0.7,1.6l-10.3,1c0,0-3.2,2.5-5.9,4.4c-1.2-0.8-2-1.4-2-1.4l-1.8-2l-2.2-1.2c0,0.1-0.4,0.5-2.1,1.1
	c-3.2,1.3-15-0.8-15,1.1c0,1.9-0.1,2.6-0.1,5.2c0,0.5-0.2,1-0.4,1.4H278c2-12.6,5.5-25.2,13.8-48.2c0.1-0.2,1.4,1,1.4,1
	c0.5-0.1,1.2-1.8,2.1-5.1c2.2,2.8,0.9,6.5-0.7,8.8c0.6-0.1,1.7-0.9,3.2-2.5c0.1,0.4-0.4,1.7-1.5,3.9c0,0,2-1.3,2.1-1.4
	c0.1,0.1-1.8,6.8-2.4,9.1c2.2-0.5,6.9-4.5,5.6-13.8c0.4,0.6,0.8,1.5,1.2,2.8c0.3-0.6,0.4-1.9,0.4-3.9c0.1-0.1,1-1.5,1-1.5
	c0,0.1-0.9,6.2,0.5,6.4c0.4-3,1-4.5,1.9-4.7c0.1,0-1.6,6.7-1.1,7.2l2.5-3.8c-0.4,1.2,1.7,8.2-1.1,10.8c2.4,0,6.3-7.1,5.5-10.2
	c-0.7-3.1-2.1-6-5.3-9.3c1.2,0.3,2.7,1.7,4.7,4.2c0.1-0.1,0.1-0.2,0.1-0.3c-0.4-2-4.2-6.6-4.2-6.6c1.6,1.1,3.4,2.5,5.4,4.3
	c0-0.9,0.1-1.7,0.3-2.5c0.2,0,0.8,3.9,1.2,4.4c1.9,2.4,2.3,7,2.1,8.7c2.1-1.3,4.8-13.9-8.7-19.4c-0.1-0.1-0.1-0.1-0.2-0.2
	c0-0.1,0-0.2,0-0.2c2.8,0.6,5.4,2.3,7.7,5c0-0.1-1.3-4.7-1.3-4.8c0.6,0.6,1.5,2.1,2.6,4.6c0.4-0.4-1-6.1-1-6.1l0.1,0
	c0.4-0.1,0.9,0.7,1.7,2.4c0.2,0.5,1.1,4.3,1.3,4.7c0.2,0.3,1.6,3.4,1.9,4.5c0,0.1,0,0.2,0.1,0.4c1.4-1.4,1.7-3.8,1-7.4
	c-0.6-3.2-2.1-5.7-4.4-7.5c-2.3-1.8-4.8-2.5-7.4-2c-0.1,0,6.7-5.6,10.6,2.8c0.1-4.3-2.6-7.1-5.7-8.7c0-0.1,0.1-0.4,0.5-0.9
	c-0.5-0.2-4.6-3-5.1-2.9c0.1,0-0.6,0.7-2.4,2.1c0.1-0.4,0.5-1.3,1.3-2.5c-0.5,0.1-3.9,1.3-5.7,3.4c-0.1,0-0.1-0.1-0.2-0.2
	c-1.9-4.4,4-5.1,4.8-5.3c1.4-0.2,2.5,0,3.5,0.6c-0.2-0.8-0.9-1.5-2.1-2.1c-1.3-0.6-3.1-0.9-3.1-0.9c0-0.2,0-0.5,0.2-0.7
	c-0.1,0-7.5-3.4-7.6,4c-0.8-3.2-2.3-5.6-4.5-7.2c-4.1-3.5-9.8-0.4-11.7,0.7c1.2,0.4,2.5,1.1,4,2.1c0.1,0,4.1-0.4,5.2,0.5
	c-0.1,0.1-3.9,1.5-3.9,1.5c0.4,0.4,3.9,1,4.5,1.7c-0.3,0.2-2.9,0.5-3.1,0.9c-2.2-2.5-5.1-4.1-8.8-4.8c-3.7-0.7-6.2-1.6-7.4-2.9
	c-0.4,1.1,1.9,6.4,3.7,5.9c0.1,0,2.5-0.6,2.8-0.6c-0.4,0.3-0.9,0.7-1.5,1.2c0.1,0.6,2.5,0.6,2.8,0.6c-0.5,0.2-1.8,0.7-4,1.4
	c0,0.1,0.2,0.7,0.4,1c-2.8,0.5-4.8,2.3-6.1,5.1l0.1,0c0.1,0,1.7-1.4,2.3-1.1c0.7,0.3-1.7,1.5-1.7,1.5c-1.1,1.1-1.9,2.6-2.3,4.5
	c-0.6-0.2-1-0.2-1.3,0c-0.5,0.1-1.2,1-2,2.8c-0.3-0.1-0.8-2.2-0.8-2.3c-3.1,0.4-3.9,6.5-4.3,6.9c-0.1-0.2-0.8-1.9-0.9-2
	c-0.5,0.9-0.8,1.3-1.2,1.4c-0.1-0.1-1-4.4,1.4-5.5c-0.8-1-2.2-0.2-2.8-0.2c0-1.1,2.6-7.3,3.6-7c-4.9-1.7-8.9,5-10.4,12.7
	c-1-1.2-3.4-0.8-4.6-1.7c0,0.1,1,3,0.8,3.3c-0.5-0.8-2.1-4.3-3.6-4.5c0.2,0.6,1.1,3,1.1,3.1c-0.1,0-4.1-3.9-4.8-3.8
	c-5.8,0.9-5.2,5.6-5.1,7.3c0.1,0.4,0.3,0.9,0.5,1.6c1-1.6,2.2-2.6,3.6-2.9c0.8-0.2,4.8,0.4,5,2.7c0,0.1-3.9-0.3-5.4,0
	c-3.9-0.1-6.5,4.3-7.3,4.5c-0.6,0.1-1.2,0-1.8-0.3c1.2,1.5,2.4,2.1,3.6,1.8c0.3-0.1,2.4-1.8,3.7-0.4c-0.8,1.3-1.3,2.5-1.5,3.7
	c0.1,0,1.9-1.1,2.9-0.6c-3.4,3.7,0.2,10.8,0.1,11.6c-0.7,1.3,0.9,4.9,1.5,6c-0.3-1.2-0.4-4.1-0.2-4.7c0.8,3.5,2,6,3.7,7.5
	c-0.3-0.7-1.4-6.3-1.1-7.1c0.1,0.2,0.4,0.3,1,0.4c0.1-1.3,0.6-3.1,1.4-5.5c0.1,0.3,2.6,13,10.6,12.1l0.1,0c-2.7-2-6.2-3.6-4.7-7.1
	c0,0,0.6,0.4,1.1,0.7c-0.5-1.3-1.3-4.8-1.3-5.2c0.2,0.5,0.6,1.2,1.3,2c0-0.8,0.2-1.9,0.8-3.3c0.4,1,1,2.6,2,4.7
	c0-0.2,0.2-0.4,0.6-0.8c0.4,0.8,1.9,4.1,2.7,4.5c0-0.2,0.3-1.1,0.4-1.4l0.1,0c1.2,2.5,3.9,16.3,4.3,32.7l-10.1,0.8
	c-1.6-0.3-2.9-0.3-2.9-0.3s0.7-3.2-2.4-3.2c-3.1,0-7.4-3.3-8.8-0.1c-1.3,3.2-1.4,5.1-1.4,5.1s0,0,0,0.1c-0.3,0.1-0.6,0.1-0.9,0.2
	c-0.6-1.3-1-2.7-2.4-3.4c0-1.3-1.6-2-1.7-3.3c-0.1-0.8,0.4-1.4,0.6-2.3c0.2-0.3,0.7-0.2,0.9-0.6c0-0.6,0-1-0.1-1.5
	c3.7-1.8,8.1-2.7,13.4-1.1c3,0.9,6.3,3.1,9.5,3.6c0.8,0.1,1.9,0.3,2.6-0.2c-5.6-0.5-8.7-4.2-14.8-5.4c-3.7-0.8-7.4-0.9-11.1-0.6
	c-2.7-1.2-5.5-2.4-8.8-2.6c-2.2-0.1-4.4,1.9-5.9-0.5c-0.9-1.4-0.4-4.1-1.7-5.3c-0.7-0.6-2.1-1-3-1.1c-1.2-0.1-3.4-0.7-4.6,0.2
	c1,1,2.4,0.8,3.6,1.5c-1.5,0.1-2.2-0.1-3.3,0.1c0.5,1,2,0.7,3.1,1c1.3,0.3,2.4,0.9,3.1,1.5c0.6,2.5,1.8,4.5,3.5,6.1
	c-0.5,1.5,0.6,2.2,0.2,4c-0.8,1.1-1.5,2.5-3.4,2.4c-0.1,0.2-0.4,0.4-0.7,0.5c-0.3-0.2-1.3-1.1-3.8-2.5c-2.9-1.7-7.5-9.5-10.5-5.2
	c-3,4.2,1.9,0.9-3,4.2c-4.9,3.4-3.9,2.5-9.8,5c-5.9,2.5-4.9,4.2-8.8,2.5c-3.8-1.7-7.7-4.3-7.7-4.3l-2.8-2.6l-3.5-1.6
	c0,0.2-0.7,0.6-3.3,1.5c-0.3,0.1-0.8,0.2-1.2,0.3c-1.1-1.5-5.6,0.2-2.3-1.8c-0.7-0.2-1.6-0.6-2.2,0c-1-1.9-2.4-3.3-1.9-5.4
	c2.6-3.3,2.5-5.6,4.4-8.2c0.4,2,3.5,1.2,4.6,0.7c0.9,1.2,1.7,2.5,1.4,4.6c-0.4,0.2-0.3,0-0.8,0.2c0,1.2,1,0.6,1.5,1
	c-0.7-0.2-0.4,0.5-0.1,0.6c0.5-0.2,0.8-0.5,1.4-0.7c-0.1-0.6-0.2-0.9,0.4-1.1c-0.2,0.4,0.2,0.7-0.3,0.5c0,0.2,0,0.4,0,0.6
	c0.3,0,0.6,0,0.9-0.1c0.5-1,0.3-1.5,0.5-2.7c0.1,0.7,0.9,1.1,0.3,1.7c1.2-0.1,1.1-1,0.8-1.9c1.3-0.9-0.2-2-0.8-2.8
	c-0.4-0.5-0.7-1.3-1.4-1.8c-1.8-1.5-3.6,0.2-5.1-1.4c2-2.7,5-6.4,5.5-9.4c2.2-3.1,3.7-10.5-1.2-11.8c-1.5-0.3-5.5-0.5-7.2,0.7
	c0,0.8,0,0.8-0.1,1.4c1,0.6,1.8,1.8,3.2,1.5c-0.1,0-0.2-0.1,0-0.2c0.2,0.8-1.5,1.6-2.6,0.9c0.1,0.3-0.2,0.3-0.3,0.5
	c0.4,0.2,0.5,0.7,0.8,0.9c0,0.4-0.5,0.5-0.8,0.5c-0.2,0.6-0.2,1.3,0.4,1.9c0.7,0.6,1.6-0.1,2.8-0.5c-0.2,0.8,0.4,2-0.8,2.4
	c0.1,0,0.2,0.1,0,0.2c-2-0.9-3.5-1.3-5.1-2.2c-2.7-0.7-5.9,0.4-8.7,0.8c-6.9,1.1-12.6-1-17.7-2.2c-7.3-0.8-12.2-3.4-21.8-2.8
	c-0.1,0.4,0.2,0.4,0.2,0.8c5.4,0.2,20.1,5.4,21.7,6.4c5.4,1.9,8.7,3,13.8,6.7c2,0.8,3.6,2.8,4.6,4.3c0.6,0.8,1.4,1.7,1.6,2.6
	c0.2,1.1-1.1,2-1.2,3.4c-0.2,2,0,2.3-1,3.8c-1.3,1.9-0.8,3.5,0.8,5.6c0.1,0.9,0.3,1.5,0.5,2c-5.7-0.2-11-0.4-11,1
	c-0.1,2.6-0.1,3.4-0.2,6.8c-0.1,3.4-5,5.1-5,5.1l-5.8,0.8l-12.1-2.7c0,0,1.9,0-2.9,0c-4.8-0.1-1.9,0-1.9,0s-1.4,1-3.2,2
	c-0.2-0.1-0.4-0.3-0.6-0.4c0-1.3-1.6-2-1.7-3.3c-0.1-0.8,0.4-1.4,0.6-2.3c0.2-0.3,0.7-0.2,0.9-0.6c0-0.6,0-1-0.1-1.5
	c3.7-1.8,8.1-2.7,13.4-1.1c3,0.9,6.3,3.1,9.5,3.6c0.8,0.1,1.9,0.3,2.6-0.2c-5.6-0.5-8.7-4.2-14.8-5.4c-3.7-0.8-7.4-0.9-11.1-0.6
	c-2.7-1.2-5.5-2.4-8.8-2.6c-2.2-0.1-4.4,1.9-5.9-0.5c-0.9-1.4-0.4-4.1-1.7-5.3c-0.7-0.6-2.1-1-3-1.1c-1.2-0.1-3.4-0.7-4.6,0.2
	c1,1,2.4,0.8,3.6,1.5c-1.5,0.1-2.2-0.1-3.3,0.1c0.5,1,2,0.7,3.1,1c1.3,0.3,2.4,0.9,3.1,1.5c0.6,2.5,1.8,4.5,3.5,6.1
	c-0.5,1.5,0.6,2.2,0.2,4c-0.8,1.1-1.5,2.5-3.4,2.4c-0.1,0.3-0.5,0.4-0.9,0.6c-0.2-1.2-1-2.6-3.8-2.7c-1.5,0-3.2-0.4-4.8-0.9
	c-0.1-1-3-1.1-3.6-1.9c-2.5,0.1-3.8-1.6-5.2-3c-1-2.2,0.4-3.2-0.6-5.1c2.1-2.1,3.3-4.7,3.6-7.8c0.8-0.8,2.2-1.6,4.1-2
	c1.5-0.4,3.6,0,4.1-1.3c-1.6-0.3-2.6,0.1-4.7-0.1c1.4-1,3.5-0.7,4.6-2c-1.8-1.2-4.8-0.4-6.4-0.2c-1.2,0.1-3.1,0.6-3.9,1.4
	c-1.5,1.5-0.3,5-1.2,6.8c-1.6,3.1-5.1,0.5-8.1,0.7c-4.6,0.3-8.2,1.9-11.7,3.5c-5.2-0.3-10.3-0.1-15.4,0.9
	c-8.2,1.7-11.7,6.4-19.5,7.2c1.1,0.7,2.6,0.4,3.7,0.2c4.4-0.6,8.4-3.5,12.5-4.7c7-2.1,13.4-1,18.9,1.3c-0.1,0.6,0,1.2,0.1,1.9
	c0.3,0.4,1,0.4,1.3,0.7c0.4,1.2,1.2,1.9,1.3,3c0.2,1.6-2,2.5-1.7,4.2c-2.1,1-2.2,3.3-3,5.1c-3.8,1.2-8,4.3-9.6,7.8
	c0.8-1.8-0.9-3.5-0.8-5.1c-6.6,1.5-12.8,4.2-16.4,8.3l0,0.4l-1.2,3.6c-5.3,1.4-5.8,5-4.6,4.5c-0.1,2.3-1.7,5.8-1.1,7.9
	c0.1,0.3,0.3,0.5,0.6,0.7C4.5,193.9,0,196.9,0,200H1200z M53.2,162.1c0,0.1,0.1,0.3,0.1,0.4c-0.8-0.3-1.9-0.3-2.9-0.1
	c0.3-1.6,1.6-2.8,2.9-3.7C53.8,160,53,161,53.2,162.1z M68.7,159c-0.4,0.2-0.9,0.3-1.4,0.6c-0.9-1.4-4.1-1.4-4.9-2.1
	c-1.2,1.7-4.4,4.2-6.1,6c-0.8-2.6-0.4-5.4,0.1-7.5c0.8-1.4,2.5-2.2,2.7-4c2.1-0.9,3-2.6,5.9-3c0.8,1.6,1,3.5,2.6,4.3
	c0.7,1,1.5,1.8,2.3,2.6C69.2,157.1,68.9,158.2,68.7,159z M70.5,154.3c-1.4-0.9-2.9-2.5-3.3-4.1c-0.2-0.7-0.3-2,0.6-2.4
	c0.5,0.8,0.9,1.9,1.4,2.8c1.2,0.5,2.4,1.4,3.6,2.3C71.9,153.1,71.1,153.5,70.5,154.3z M87.9,159c0,0.1,0,0.2,0.1,0.3
	c-0.2,0-0.3,0-0.3,0s0.1-0.4,0.1-0.9c0.2,0,0.5,0,0.7,0.2c0.2-0.2,0-0.2,0-0.5c0.1,0,0.4,0,0.7-0.1C89,158.1,88.4,159.3,87.9,159z
	 M91.5,159.2c-0.1,0.1-0.1,0.3-0.1,0.4c-1-0.1-2-0.2-2.6-0.2c0.2-0.1,0.4-0.3,0.5-0.4c1.2-1,2.3-2.4,3.6-3.1
	c0.2-0.7,0.4-1.5,0.7-2.2c0.7,0.3,0.8,1.3,0.7,1.9C94.1,157.1,92.6,158.8,91.5,159.2z M99.2,162.8c-0.9-1.6-3.5-2.5-6-3
	c0.4-0.6,0.9-1.3,1.3-2c1-0.6,0.9-2.1,1.3-3.3c2.1,0.3,3,1.6,4.6,2.3c0.4,1.4,1.7,2,2.4,3.1c0.4,1,0.7,2.1,0.9,3.4
	C101.7,164,99.9,164.1,99.2,162.8z M105.2,162.6c0-0.2,0-0.4,0-0.7c0.2,0.1,0.4,0.3,0.6,0.4C105.6,162.4,105.4,162.5,105.2,162.6z
	 M152.2,148.1c-2-1.9-3.1-4.7-1.4-7.1c0.8-0.5,1.2-1.3,1.9-1.8c0,0,0,0,0,0c0,0-0.1-0.1-0.2-0.1c0.1,0,0.2,0,0.2,0.1
	c0.9,0.8-1.2,2.7-1.3,4c-0.1,1.3,0.9,2,1.3,2.7c-0.4,0.6,0.2,1.3,0.4,1.5C153.5,148,152.3,147.5,152.2,148.1z M215.3,151.9
	c0,0,0-0.1,0-0.1c0.1,0,0.4,0,0.7-0.1c-0.1,0.1-0.3,0.3-0.5,0.6L215.3,151.9z M228.9,159l-2.4,1.6c-0.7,0.2-1.3,0.4-1.9,0.5
	c-1.4-0.6-2.7-1.1-3.8-1.5l-0.4-0.5l-4.6-6.3c0.1-0.1,0.1-0.1,0.2-0.1c1.2-1,2.3-2.4,3.6-3.1c0.2-0.7,0.4-1.5,0.7-2.2
	c0.7,0.3,0.8,1.3,0.7,1.9c-0.2,1.6-1.6,3.3-2.7,3.6c-0.3,0.7-0.4,1.2-0.4,2c0.3-0.1,0.3,0.1,0.6,0c0,0.4-0.7-0.1-0.6,0.3
	c0.7,0.9,1.5-0.3,1.6-1c0.6-0.9,1.2-1.7,1.7-2.6c1-0.6,0.9-2.1,1.3-3.3c2.1,0.3,3,1.6,4.6,2.3c0.4,1.4,1.7,2,2.4,3.1
	c0.5,1.4,1.1,3.3,1,5.1C230,158.8,229.5,158.9,228.9,159z M234,158.8c-0.5,0-1-0.1-1.5-0.1c0-0.1,0-0.2,0-0.4c0-0.9-0.7-1.6-0.5-2.7
	c1.1,0.7,2.2,1.7,2.6,3C234.4,158.7,234.2,158.7,234,158.8z M279.8,81.3c-0.3,0.5-0.8,1.1-1.5,1.9c0.5-0.3,3.7-2.6,6.9,0.8
	c-2.7-0.3-4.3-0.4-4.9-0.3c-3.8,0.6-6.4,2.6-7.9,5.8c-0.9-0.6-1.7-1-2.5-1.3C272.4,85.5,279.5,81.1,279.8,81.3z M277.5,93.6
	c-0.1-0.3-0.7-0.8-1.5-1.5c1.5-1.2,3.2-2,5.1-2.3c0.5-0.1,1.2,0,2.1,0.4c-2.4,1.5-6.9,2.6-7.3,8.5c-0.1-0.1-0.1-0.1-0.2-0.2
	c-0.7-1.3-1.5-2.3-2.3-3c0.2-0.5,0.5-1.2,0.8-1.9C275.7,93.9,277,94.2,277.5,93.6z M275.1,91.4c0.1-0.2,0.2-0.4,0.3-0.7
	c0,0.1,0.1,0.6,0.1,1C275.4,91.6,275.2,91.5,275.1,91.4z M272.9,95.2c-0.2-0.2-0.5-0.3-0.7-0.5c0.2-0.4,0.4-0.7,0.6-1
	C272.8,93.8,272.9,94.5,272.9,95.2z M271.4,93.2c-0.1,0.3-0.1,0.7-0.1,1c-1.3-0.5-2.2-0.3-2.2-0.3C269.6,93.4,270.4,93.2,271.4,93.2
	z M267,155.5c-1.4-18-6.5-35.3-6.5-35.3c0.3-0.1,0.8,0.1,1.5,0.4c0.8-1.6,0.5-3-0.7-5.1c2.6,0.9,5,6.4,5,6.4
	c0.2-0.5,0.4-1.1,0.8-1.8c0.2,0.4,0.8,2.9,0.9,3.3c0.6-0.1,1-1,1-2.6c0.2,0.4,0.6,3.3,0.6,3.5c0.6,2.8,5.8,2.7,5.8,2.7
	c-1.4-1-2.9-2.1-3.2-3.6c-0.1-0.3,0.3-4.2-1.6-5.6c-0.7-0.7-1.3-1.4-1.8-2.1c0.1-0.6,0.1-1.2,0-1.7c-0.2-1.1-1.6-2.7-4-4.6l-0.2-1.4
	c0.9,0.8,2,1.8,3.4,2.8c0.3-0.2-0.1-2.4,0-2.6c0.3,0.3,1.9,2.7,2.1,3c0.2-0.3-0.2-3-0.2-3.3c0.2,0.3,0.9,1.5,2.2,3.5
	c-0.1-0.7,3.8,2.3,5.6,4.3c0-0.7-0.1-1.3-0.2-2c-0.2-0.9-2-4.8-2.3-5.6c0.3,0.1,0.6,0.4,1.2,0.9c0-0.2-1-6.2-8.2-6.6
	c0.4-0.6,0.9-0.9,1.4-1c0.8-0.2,3.9-0.5,5.4,0.7c-0.1-0.5-0.1-1,0-1.5c1,0.9,2.3,2.2,4.1,3.8c-0.1-0.4-0.2-0.7-0.2-0.9
	c-0.3-1.3-1.2-2.9-2.9-5c0.6-0.9,2.2-3.4,4-3.8c-0.8,1-3,4-2.6,5.2c2.7-3,5.6-2.5,5.7-2.4l-0.8,1.5c0.1-0.1,7.3-4.1,7.3-4.1
	c-0.9,0.7-3.1,4-3.1,4.7c0.1,0,0.9,0.4,1.1,0.6c-1.1,1.2-1.8,3-2.1,5.5c0,0.2,1.1,0.7,1.2,0.7c0.6,1.4,1,2.1,1.1,2.3
	c-0.8,1.7-10.9,26.2-15.5,46.7H267z M352,144.7h-4.7c0-0.5,0.3-0.9,0.2-1.5c0.9-0.6,1.7-1.3,2.2-2.2c0.7,0.1,1.4-0.2,1.8-0.2
	c0.1,1.2,0.7,1.9,0.8,3.2C352.3,144.2,352.2,144.5,352,144.7z M354.9,144.7c0.1-0.3,0.3-0.5,0.3-0.8c0.1-1.1-0.7-2.2-0.4-3.4
	c1-0.3,2.2-0.5,3.2-0.8c1.6,0.4,1.3,2.7,2.1,3.7c0.4,0.5,1.3,0.9,1.9,1.3H354.9z M391,144.7c0.2-0.3,0.3-0.5,0.6-0.7
	c1.3-1.1,3.8-2.1,4.8-3.4c1.7-2.2,1.2-7,4.5-7.9c2,0.8,4.6,1.1,6.8,1.8c0.6,2.5-1,4.8-0.8,7.3c0.1,0.6,0.6,1.2,0.8,1.9
	c0.1,0.3,0.1,0.7,0.2,1H391z M423.7,143.7c-0.1,0.4-0.4,0.8-0.7,1h-8.5c-0.5-1-1.1-2-1.4-3c0.2-2.6,1.5-4.1,1.6-6.8
	c0.8,0,2.3,0.7,3.9,0.5c1.2,2,2.8,3.4,4.7,4.7C423.1,141.7,423.9,142.6,423.7,143.7z M539.1,171.2c-5.1-0.4-10.3-0.7-15.7-0.9
	c1.6-4,5-7.9,7.2-11c1.6-0.6,3.7,2,5.9,0c1.9,3.5,3.6,7.8,4.9,11.8C540.6,171.1,539.9,171.1,539.1,171.2z M561.6,170.6
	c-0.5,0-1,0-1.4,0c-3.7-0.1-7.2-0.1-10.5,0c-0.6-3.7-0.1-8.2-0.9-11.8c1.8-1.2,4.5-1.8,7.6-2C560.5,160,561.6,165,561.6,170.6z
	 M576.8,170.5c-0.5,0-1.1,0-1.6,0c-1.1-2.2-2.3-4.3-3.6-6.4c0.8-1.9,1.5-3.8,2.3-5.8c2.4,0.8,4.4,1.9,5.3,3.6
	C578.8,165.5,577.7,167.8,576.8,170.5z M581.8,170.4c0.7-1.2,1.9-2.4,2.8-3.7c0.9-0.3,0.5-1,1.7-2.1c1,1.7,1.8,3.8,2.5,5.8
	C586.5,170.3,584.2,170.4,581.8,170.4z M603.2,172.5c-0.9,0-1.8,0-2.7,0c-0.7-0.2-1.6-0.3-2.6-0.5c-0.3-0.5-0.3-0.8-0.6-1.4
	c-1.2-0.1-2.4-0.1-3.6-0.2c-0.3-2,0-4.3-0.4-6.1c1-0.7,5.3-1,7.1-1.1C603.1,165.4,603.5,168.8,603.2,172.5z M707.8,174.6
	c-0.6,0-1.4,0-2.5-0.1c1.1-1.9,2.3-3.7,3.6-5.4c0.7,0.2,1.3,0.5,2.2,0.5c1.3,1.9,1.9,4.5,2.3,7.3
	C711.7,176.1,709.8,175.3,707.8,174.6z M720.9,179.5c-0.9-1.2-3.3-1.3-3.9-3.2c-0.5-1.4,0.4-3.2,0.1-5c3,1.6,3.4,5.7,5.5,8.2
	C722,179.5,721.4,179.5,720.9,179.5z M1027.3,166.1l-12.1-2.7c0,0,1.9,0-2.9,0c-4.8-0.1-1.9,0-1.9,0s-4.2,3-7.5,4
	c-0.8-2.3-0.9-5-1.4-7.1c1.8-4,8-4.6,10.7-8.9c3.6-0.3,6.4-1.4,9.4-4.1c1.6,1.2,3.5,0.6,4.5,2.7c0.8,1.6,0.9,4.3,2.2,6.8
	c0.4,0.7,1,1.1,1.3,1.9c0.9,2.1,0.3,5.1,2.6,6.8L1027.3,166.1z M1132.3,170.8c1-0.5,1.4-1.4,1.7-2.3c0,0.5,0,1.1,0.1,1.6
	C1133.4,170.3,1132.8,170.6,1132.3,170.8z M1071,59.1c4.8,4.2,10.5,8.4,13.4,14.4c1.1,2.3,2.6,4.6,3.1,6.8c0.8,3.4-1.4,4.4-3.8,5.7
	c-0.7-0.1-0.7-0.5-1.4-0.2c-0.2,0.7-0.4,1.9,0.6,2c0.9-0.6,1.4-1.5,2.7-1.8c-0.3,0.3-0.5,0.6-0.4,1.2c0.9,0.2,0.8,0.3,2,0.4
	c0.5-0.7,0.5-1.8,0.5-2.8c0.9-0.3,1.8-1.3,2.9-0.5c-1,0.5-1.9,2.1-0.7,3.2c0.5,0.1-0.2-0.8,0.4-0.7c0.5,0.1-0.2,1.4,0.6,1.2
	c0.2-0.4,1.5-0.3,1.1-1.6c-0.2-0.6-1.3-0.3-1.4-0.9c2.3-1.4,4.1-3.3,5.5-5.5c2.7-0.5,3.5,1.6,5.5,1.2c2.9-0.5,0.8-6.9-2.1-6.9
	c-0.9,0-2.1,0.6-2.9,1.8c0.1-2.4,1.3-3.7,2-5.5c0.5,0,0.4,0.6,1,0.5c0.2-0.5,0.9-0.6,0.9-1.2c0-0.7-1-0.5-1.2-1.1
	c2.4-4.1,5.5-13.7,2.2-18.8c-1.2,4.8-0.3,9.7-1.8,13.9c-1.6,4.3-4.5,8.2-5.7,12.4c-4.4-1.5-5.8-5.9-7.7-9.8
	c-0.5-0.1-0.7-0.3-1.4-0.2c-6.2-5.3-12.5-10.4-19.8-14.6C1066.2,54.4,1068.7,57.2,1071,59.1z M1045,133.1c0,0.1,0,0.1,0,0.2
	C1045,133.3,1045,133.2,1045,133.1z M198.2,37c0.7-0.6,1.6-0.3,2.3-0.4c4.1-3.2,6-8.7,10.6-9.3c5.8-0.7,12,5.9,18.6,5.8
	c-0.3-1.2-3.4-1.5-3.7-2.7c1.6,0,3.9,2.2,5.1,0.8c-3.8-2.3-8.5-4.2-10.3-7.1c3.6,0.1,7.2,0.2,10.6-0.4c0.9-0.8-0.5-0.9,0.2-1.6
	c4.3-3.3,10.4-11.2,9.7-17c-7.5,11-17.8,12.1-28,13.8c-0.9-0.5-1.8-1-2.7-1.5c-1,1,0.5,1.4,0.2,2.2c-3,0.5-6.3-0.4-9.8-1.6
	c-1.7,1.6-4.7,2-5.6,3.8c0.8,0.2,0.2,0.8,0.8,1.1c1,0.2,1.4-1.2,2.2-1.5c4.9,3.2-1.7,7.1-4.5,8.2c-7.2,3-17,1.6-23.2,2
	c9.5,3.3,18.4,4.5,26.9,4.5C198.1,36.3,197.6,36.8,198.2,37z M164.5,144.8l0.4,0.2C164.9,144.8,164.5,144.8,164.5,144.8z
	 M745.2,49.8c0.9,0.8-0.8,1.1,0.4,2c4.2,0.3,8.6-0.1,13-0.6c-1.9,3.6-7.5,6.5-11.9,9.7c1.6,1.6,4.2-1.3,6.2-1.4
	c-0.2,1.5-4,2.2-4.2,3.7c8.1-0.6,15-9.2,22.2-8.9c5.7,0.2,8.7,6.8,14,10.3c1,0.1,2-0.3,2.9,0.3c0.8-0.3,0-0.9,0.5-1.2
	c10.5-0.9,21.2-3.2,32.5-8.2c-7.7,0.1-19.5,2.8-28.6-0.1c-3.5-1.1-12-5.2-6.4-9.6c1,0.3,1.7,2,2.9,1.7c0.6-0.4-0.2-1.1,0.8-1.4
	c-1.3-2.1-5-2.4-7.2-4.1c-4.1,1.9-8.2,3.3-11.8,3c-0.4-1,1.3-1.5,0-2.7c-1,0.7-2.1,1.4-3.1,2.1c-12.6-1.1-25.4-1.5-35.7-14.2
	C731.2,37.2,739.6,46.2,745.2,49.8z M299,144.9l0.2,0.1C299.3,144.9,299,144.9,299,144.9z M136.3,42.5c0.5-0.4,1.1-0.2,1.7-0.3
	c3-2.3,4.4-6.4,7.8-6.8c4.3-0.5,8.8,4.3,13.7,4.3c-0.2-0.9-2.5-1.1-2.7-2c1.2,0,2.9,1.6,3.8,0.6c-2.8-1.7-6.3-3.1-7.6-5.2
	c2.6,0.1,5.3,0.1,7.8-0.3c0.7-0.6-0.3-0.7,0.1-1.2c3.2-2.4,7.7-8.2,7.1-12.5c-5.5,8-13.1,8.9-20.6,10.2c-0.7-0.4-1.3-0.7-2-1.1
	c-0.7,0.8,0.3,1,0.1,1.6c-2.2,0.4-4.7-0.3-7.2-1.2c-1.2,1.2-3.4,1.5-4.1,2.8c0.6,0.2,0.2,0.6,0.6,0.8c0.7,0.2,1.1-0.9,1.6-1.1
	c3.6,2.4-1.3,5.2-3.3,6c-5.3,2.2-12.5,1.2-17.1,1.5c7,2.4,13.5,3.3,19.8,3.3C136.3,42,135.9,42.4,136.3,42.5z M691.3,54.4
	c0.5,0.4-0.4,0.6,0.2,1.1c2.3,0.2,4.6-0.1,7-0.3c-1,2-4,3.5-6.4,5.2c0.9,0.9,2.3-0.7,3.3-0.8c-0.1,0.8-2.2,1.2-2.3,2
	c4.4-0.3,8.1-5,11.9-4.8c3.1,0.1,4.7,3.7,7.5,5.6c0.5,0.1,1.1-0.2,1.6,0.2c0.4-0.2,0-0.5,0.3-0.7c5.6-0.5,11.4-1.7,17.5-4.4
	c-4.1,0.1-10.5,1.5-15.4-0.1c-1.9-0.6-6.5-2.8-3.4-5.2c0.5,0.2,0.9,1.1,1.6,0.9c0.3-0.2-0.1-0.6,0.4-0.8c-0.7-1.2-2.7-1.3-3.9-2.2
	c-2.2,1-4.4,1.8-6.4,1.6c-0.2-0.5,0.7-0.8,0-1.4c-0.6,0.4-1.1,0.7-1.7,1.1c-6.8-0.6-13.7-0.8-19.2-7.6
	C683.8,47.6,688.3,52.5,691.3,54.4z M500.7,29.8c0.5,0.4-0.4,0.6,0.3,1c2.3,0,4.6-0.5,6.9-0.9c-0.8,2-3.7,3.8-5.9,5.7
	c1,0.8,2.2-0.9,3.2-1c-0.1,0.8-2,1.4-2.1,2.2c4.3-0.7,7.6-5.6,11.5-5.8c3.1-0.1,5,3.3,8,4.9c0.5,0,1.1-0.3,1.6,0
	c0.4-0.2,0-0.5,0.2-0.7c5.6-0.9,11.2-2.6,17-5.8c-4.1,0.4-10.3,2.4-15.4,1.2c-1.9-0.4-6.7-2.2-3.9-4.9c0.6,0.1,1,1,1.6,0.8
	c0.3-0.2-0.1-0.6,0.4-0.8c-0.8-1.1-2.8-1-4.1-1.9c-2.1,1.2-4.2,2.1-6.2,2.1c-0.3-0.5,0.6-0.9-0.1-1.4c-0.5,0.4-1,0.8-1.6,1.2
	c-6.8-0.1-13.7,0.3-19.8-6C492.6,23.6,497.5,28.1,500.7,29.8z"/>
</svg>
